<svg width="32" height="32" viewBox="0 0 32 32" fill="none" xmlns="http://www.w3.org/2000/svg">
<g clip-path="url(#clip0_642_677)">
<rect width="32" height="32" rx="10" fill="url(#paint0_linear_642_677)"/>
<g filter="url(#filter0_d_642_677)">
<path d="M25 11V21C25 23.209 23.209 25 21 25H11C8.791 25 7 23.209 7 21V11C7 8.791 8.791 7 11 7H21C23.209 7 25 8.791 25 11Z" stroke="white" stroke-width="1.5" stroke-linecap="round" stroke-linejoin="round"/>
<path d="M25 16H20.309C20.12 16 19.946 16.107 19.862 16.276L18.447 19.105C18.263 19.474 17.737 19.474 17.553 19.105L14.43 12.861C14.249 12.499 13.735 12.491 13.543 12.847L11.984 15.737C11.896 15.899 11.727 16 11.544 16H7" stroke="white" stroke-width="1.5" stroke-linecap="round" stroke-linejoin="round"/>
</g>
</g>
<defs>
<filter id="filter0_d_642_677" x="-2" y="2" width="36" height="36" filterUnits="userSpaceOnUse" color-interpolation-filters="sRGB">
<feFlood flood-opacity="0" result="BackgroundImageFix"/>
<feColorMatrix in="SourceAlpha" type="matrix" values="0 0 0 0 0 0 0 0 0 0 0 0 0 0 0 0 0 0 127 0" result="hardAlpha"/>
<feOffset dy="4"/>
<feGaussianBlur stdDeviation="3"/>
<feColorMatrix type="matrix" values="0 0 0 0 0 0 0 0 0 0 0 0 0 0 0 0 0 0 0.1 0"/>
<feBlend mode="normal" in2="BackgroundImageFix" result="effect1_dropShadow_642_677"/>
<feBlend mode="normal" in="SourceGraphic" in2="effect1_dropShadow_642_677" result="shape"/>
</filter>
<linearGradient id="paint0_linear_642_677" x1="0" y1="0" x2="32" y2="32" gradientUnits="userSpaceOnUse">
<stop stop-color="#FB923C"/>
<stop offset="1" stop-color="#DB2777"/>
</linearGradient>
<clipPath id="clip0_642_677">
<rect width="32" height="32" rx="10" fill="white"/>
</clipPath>
</defs>
</svg>
